<?xml version="1.0" encoding="utf-8"?>
<!-- Generator: Adobe Illustrator 21.0.2, SVG Export Plug-In . SVG Version: 6.00 Build 0)  -->
<svg version="1.1" id="Layer_1" xmlns="http://www.w3.org/2000/svg" xmlns:xlink="http://www.w3.org/1999/xlink" x="0px" y="0px"
	 width="42px" height="72px" viewBox="0 0 2272 1872" enable-background="new 0 0 2272 1872" xml:space="preserve">
<g>
	<rect x="339.4" y="49.2" fill="#262626" width="6.4" height="160.7"/>
	<circle fill="#262626" cx="342.3" cy="183.5" r="8.6"/>
	<circle fill="#262626" cx="342.3" cy="156.7" r="8.6"/>
	<circle fill="#262626" cx="342.3" cy="129.9" r="8.6"/>
	<circle fill="#262626" cx="342.3" cy="103" r="8.6"/>
	<circle fill="#262626" cx="342.3" cy="76.2" r="8.6"/>
	<polygon fill="#004F5D" points="342.6,826.2 231.4,826.2 155.7,911.1 342.7,911.1 	"/>
	<polygon fill="#003337" points="342.6,826.2 453.9,826.2 529.5,911.1 342.6,911.1 	"/>
	<rect x="281.8" y="723.1" fill="#FF5F38" width="60.7" height="101.9"/>
	<path fill="#741F0A" d="M281.8,730.4c32.9,2.8,60.7,2.3,60.7,2.3v-9.6h-60.7V730.4z"/>
	<path fill="#741F0A" d="M340.1,721c-1.4,0-2.5,1.1-2.5,2.5c0-1.4-1.1-2.5-2.5-2.5c-1.4,0-2.5,1.1-2.5,2.5c0-1.4-1.1-2.5-2.5-2.5
		c-1.4,0-2.5,1.1-2.5,2.5c0-1.4-1.1-2.5-2.5-2.5c-1.4,0-2.5,1.1-2.5,2.5c0-1.4-1.1-2.5-2.5-2.5c-1.4,0-2.5,1.1-2.5,2.5
		c0-1.4-1.1-2.5-2.5-2.5c-1.4,0-2.5,1.1-2.5,2.5c0-1.4-1.1-2.5-2.5-2.5c-1.4,0-2.5,1.1-2.5,2.5c0-1.4-1.1-2.5-2.5-2.5
		c-1.4,0-2.5,1.1-2.5,2.5c0-1.4-1.1-2.5-2.5-2.5c-1.4,0-2.5,1.1-2.5,2.5c0-1.4-1.1-2.5-2.5-2.5c-1.4,0-2.5,1.1-2.5,2.5
		c0-1.4-1.1-2.5-2.5-2.5c-1.4,0-2.5,1.1-2.5,2.5c0-1.4-1.1-2.5-2.5-2.5s-2.5,1.1-2.5,2.5c0-1.4-1.1-2.5-2.5-2.5
		c-1.4,0-2.5,1.1-2.5,2.5c0-1.4-1.1-2.5-2.5-2.5c-1.4,0-2.5,1.1-2.5,2.5v8.9c0,1.4,1.1,2.5,2.5,2.5c1.4,0,2.5-1.1,2.5-2.5
		c0,1.4,1.1,2.5,2.5,2.5c1.4,0,2.5-1.1,2.5-2.5c0,1.4,1.1,2.5,2.5,2.5s2.5-1.1,2.5-2.5c0,1.4,1.1,2.5,2.5,2.5c1.4,0,2.5-1.1,2.5-2.5
		c0,1.4,1.1,2.5,2.5,2.5c1.4,0,2.5-1.1,2.5-2.5c0,1.4,1.1,2.5,2.5,2.5c1.4,0,2.5-1.1,2.5-2.5c0,1.4,1.1,2.5,2.5,2.5
		c1.4,0,2.5-1.1,2.5-2.5c0,1.4,1.1,2.5,2.5,2.5c1.4,0,2.5-1.1,2.5-2.5c0,1.4,1.1,2.5,2.5,2.5c1.4,0,2.5-1.1,2.5-2.5
		c0,1.4,1.1,2.5,2.5,2.5c1.4,0,2.5-1.1,2.5-2.5c0,1.4,1.1,2.5,2.5,2.5c1.4,0,2.5-1.1,2.5-2.5c0,1.4,1.1,2.5,2.5,2.5
		c1.4,0,2.5-1.1,2.5-2.5c0,1.4,1.1,2.5,2.5,2.5c1.4,0,2.5-1.1,2.5-2.5c0,1.4,1.1,2.5,2.5,2.5c1.4,0,2.5-1.1,2.5-2.5v-8.9
		C342.6,722.1,341.5,721,340.1,721z"/>
	<path fill="#CC2600" d="M342.6,729c0,0-121.5,2-156.8-27.4c0,0,92.1,3.9,129.3-74.5h27.4V729"/>
	
		<rect x="342.3" y="723.1" transform="matrix(-1 -1.224647e-16 1.224647e-16 -1 745.3789 1548.2117)" fill="#BA3E25" width="60.7" height="101.9"/>
	<path fill="#741F0A" d="M403.1,730.4c-32.9,2.8-60.7,2.3-60.7,2.3v-9.6h60.7V730.4z"/>
	<path fill="#4F1105" d="M344.8,721c1.4,0,2.5,1.1,2.5,2.5c0-1.4,1.1-2.5,2.5-2.5c1.4,0,2.5,1.1,2.5,2.5c0-1.4,1.1-2.5,2.5-2.5
		c1.4,0,2.5,1.1,2.5,2.5c0-1.4,1.1-2.5,2.5-2.5c1.4,0,2.5,1.1,2.5,2.5c0-1.4,1.1-2.5,2.5-2.5c1.4,0,2.5,1.1,2.5,2.5
		c0-1.4,1.1-2.5,2.5-2.5c1.4,0,2.5,1.1,2.5,2.5c0-1.4,1.1-2.5,2.5-2.5c1.4,0,2.5,1.1,2.5,2.5c0-1.4,1.1-2.5,2.5-2.5
		c1.4,0,2.5,1.1,2.5,2.5c0-1.4,1.1-2.5,2.5-2.5s2.5,1.1,2.5,2.5c0-1.4,1.1-2.5,2.5-2.5c1.4,0,2.5,1.1,2.5,2.5c0-1.4,1.1-2.5,2.5-2.5
		c1.4,0,2.5,1.1,2.5,2.5c0-1.4,1.1-2.5,2.5-2.5c1.4,0,2.5,1.1,2.5,2.5c0-1.4,1.1-2.5,2.5-2.5c1.4,0,2.5,1.1,2.5,2.5
		c0-1.4,1.1-2.5,2.5-2.5c1.4,0,2.5,1.1,2.5,2.5v8.9c0,1.4-1.1,2.5-2.5,2.5c-1.4,0-2.5-1.1-2.5-2.5c0,1.4-1.1,2.5-2.5,2.5
		c-1.4,0-2.5-1.1-2.5-2.5c0,1.4-1.1,2.5-2.5,2.5c-1.4,0-2.5-1.1-2.5-2.5c0,1.4-1.1,2.5-2.5,2.5c-1.4,0-2.5-1.1-2.5-2.5
		c0,1.4-1.1,2.5-2.5,2.5c-1.4,0-2.5-1.1-2.5-2.5c0,1.4-1.1,2.5-2.5,2.5s-2.5-1.1-2.5-2.5c0,1.4-1.1,2.5-2.5,2.5
		c-1.4,0-2.5-1.1-2.5-2.5c0,1.4-1.1,2.5-2.5,2.5c-1.4,0-2.5-1.1-2.5-2.5c0,1.4-1.1,2.5-2.5,2.5c-1.4,0-2.5-1.1-2.5-2.5
		c0,1.4-1.1,2.5-2.5,2.5c-1.4,0-2.5-1.1-2.5-2.5c0,1.4-1.1,2.5-2.5,2.5c-1.4,0-2.5-1.1-2.5-2.5c0,1.4-1.1,2.5-2.5,2.5
		c-1.4,0-2.5-1.1-2.5-2.5c0,1.4-1.1,2.5-2.5,2.5c-1.4,0-2.5-1.1-2.5-2.5c0,1.4-1.1,2.5-2.5,2.5c-1.4,0-2.5-1.1-2.5-2.5v-8.9
		C342.3,722.1,343.4,721,344.8,721z"/>
	<path fill="#821800" d="M342.3,729c0,0,121.5,2,156.8-27.4c0,0-92.1,3.9-129.3-74.5h-27.4V729"/>
	<g>
		<rect x="281.8" y="621.2" fill="#FF5F38" width="60.7" height="52.9"/>
		<path fill="#741F0A" d="M281.8,628.5c32.9,2.8,60.7,2.3,60.7,2.3v-9.6h-60.7V628.5z"/>
		<rect x="281.8" y="653.6" fill="#741F0A" width="42.6" height="3.4"/>
		<rect x="324.5" y="647.7" fill="#741F0A" width="4.7" height="26.5"/>
		<rect x="300.8" y="647.7" fill="#741F0A" width="4.7" height="26.5"/>
		<rect x="277.2" y="647.7" fill="#741F0A" width="4.7" height="26.5"/>
		<path fill="#741F0A" d="M342.6,636.9L342.6,636.9c-4.9,0-8.8,3.9-8.8,8.8v28.4h8.8V636.9z"/>
		<path fill="#741F0A" d="M340.1,619.1c-1.4,0-2.5,1.1-2.5,2.5c0-1.4-1.1-2.5-2.5-2.5c-1.4,0-2.5,1.1-2.5,2.5c0-1.4-1.1-2.5-2.5-2.5
			c-1.4,0-2.5,1.1-2.5,2.5c0-1.4-1.1-2.5-2.5-2.5c-1.4,0-2.5,1.1-2.5,2.5c0-1.4-1.1-2.5-2.5-2.5c-1.4,0-2.5,1.1-2.5,2.5
			c0-1.4-1.1-2.5-2.5-2.5c-1.4,0-2.5,1.1-2.5,2.5c0-1.4-1.1-2.5-2.5-2.5c-1.4,0-2.5,1.1-2.5,2.5c0-1.4-1.1-2.5-2.5-2.5
			c-1.4,0-2.5,1.1-2.5,2.5c0-1.4-1.1-2.5-2.5-2.5c-1.4,0-2.5,1.1-2.5,2.5c0-1.4-1.1-2.5-2.5-2.5c-1.4,0-2.5,1.1-2.5,2.5
			c0-1.4-1.1-2.5-2.5-2.5c-1.4,0-2.5,1.1-2.5,2.5c0-1.4-1.1-2.5-2.5-2.5s-2.5,1.1-2.5,2.5c0-1.4-1.1-2.5-2.5-2.5
			c-1.4,0-2.5,1.1-2.5,2.5c0-1.4-1.1-2.5-2.5-2.5c-1.4,0-2.5,1.1-2.5,2.5v8.9c0,1.4,1.1,2.5,2.5,2.5c1.4,0,2.5-1.1,2.5-2.5
			c0,1.4,1.1,2.5,2.5,2.5c1.4,0,2.5-1.1,2.5-2.5c0,1.4,1.1,2.5,2.5,2.5s2.5-1.1,2.5-2.5c0,1.4,1.1,2.5,2.5,2.5
			c1.4,0,2.5-1.1,2.5-2.5c0,1.4,1.1,2.5,2.5,2.5c1.4,0,2.5-1.1,2.5-2.5c0,1.4,1.1,2.5,2.5,2.5c1.4,0,2.5-1.1,2.5-2.5
			c0,1.4,1.1,2.5,2.5,2.5c1.4,0,2.5-1.1,2.5-2.5c0,1.4,1.1,2.5,2.5,2.5c1.4,0,2.5-1.1,2.5-2.5c0,1.4,1.1,2.5,2.5,2.5
			c1.4,0,2.5-1.1,2.5-2.5c0,1.4,1.1,2.5,2.5,2.5c1.4,0,2.5-1.1,2.5-2.5c0,1.4,1.1,2.5,2.5,2.5c1.4,0,2.5-1.1,2.5-2.5
			c0,1.4,1.1,2.5,2.5,2.5c1.4,0,2.5-1.1,2.5-2.5c0,1.4,1.1,2.5,2.5,2.5c1.4,0,2.5-1.1,2.5-2.5c0,1.4,1.1,2.5,2.5,2.5
			c1.4,0,2.5-1.1,2.5-2.5v-8.9C342.6,620.2,341.5,619.1,340.1,619.1z"/>
		<path fill="#CC2600" d="M342.6,627.1c0,0-121.5,2-156.8-27.4c0,0,92.1,3.9,129.3-74.5h27.4V627.1"/>
		
			<rect x="342.3" y="621.2" transform="matrix(-1 -1.224647e-16 1.224647e-16 -1 745.3789 1295.358)" fill="#BA3E25" width="60.7" height="52.9"/>
		<path fill="#741F0A" d="M403.1,628.5c-32.9,2.8-60.7,2.3-60.7,2.3v-9.6h60.7V628.5z"/>
		
			<rect x="360.4" y="653.6" transform="matrix(-1 -1.224647e-16 1.224647e-16 -1 763.504 1310.5439)" fill="#4F1105" width="42.6" height="3.4"/>
		
			<rect x="355.8" y="647.7" transform="matrix(-1 -1.224647e-16 1.224647e-16 -1 716.2317 1321.8109)" fill="#4F1105" width="4.7" height="26.5"/>
		
			<rect x="379.4" y="647.7" transform="matrix(-1 -1.224647e-16 1.224647e-16 -1 763.504 1321.8109)" fill="#4F1105" width="4.7" height="26.5"/>
		
			<rect x="403.1" y="647.7" transform="matrix(-1 -1.224647e-16 1.224647e-16 -1 810.7764 1321.8109)" fill="#4F1105" width="4.7" height="26.5"/>
		<path fill="#4F1105" d="M342.3,636.9L342.3,636.9c4.9,0,8.8,3.9,8.8,8.8v28.4h-8.8V636.9z"/>
		<path fill="#4F1105" d="M344.8,619.1c1.4,0,2.5,1.1,2.5,2.5c0-1.4,1.1-2.5,2.5-2.5c1.4,0,2.5,1.1,2.5,2.5c0-1.4,1.1-2.5,2.5-2.5
			c1.4,0,2.5,1.1,2.5,2.5c0-1.4,1.1-2.5,2.5-2.5c1.4,0,2.5,1.1,2.5,2.5c0-1.4,1.1-2.5,2.5-2.5c1.4,0,2.5,1.1,2.5,2.5
			c0-1.4,1.1-2.5,2.5-2.5c1.4,0,2.5,1.1,2.5,2.5c0-1.4,1.1-2.5,2.5-2.5c1.4,0,2.5,1.1,2.5,2.5c0-1.4,1.1-2.5,2.5-2.5
			c1.4,0,2.5,1.1,2.5,2.5c0-1.4,1.1-2.5,2.5-2.5s2.5,1.1,2.5,2.5c0-1.4,1.1-2.5,2.5-2.5c1.4,0,2.5,1.1,2.5,2.5
			c0-1.4,1.1-2.5,2.5-2.5c1.4,0,2.5,1.1,2.5,2.5c0-1.4,1.1-2.5,2.5-2.5c1.4,0,2.5,1.1,2.5,2.5c0-1.4,1.1-2.5,2.5-2.5
			c1.4,0,2.5,1.1,2.5,2.5c0-1.4,1.1-2.5,2.5-2.5c1.4,0,2.5,1.1,2.5,2.5v8.9c0,1.4-1.1,2.5-2.5,2.5c-1.4,0-2.5-1.1-2.5-2.5
			c0,1.4-1.1,2.5-2.5,2.5c-1.4,0-2.5-1.1-2.5-2.5c0,1.4-1.1,2.5-2.5,2.5c-1.4,0-2.5-1.1-2.5-2.5c0,1.4-1.1,2.5-2.5,2.5
			c-1.4,0-2.5-1.1-2.5-2.5c0,1.4-1.1,2.5-2.5,2.5c-1.4,0-2.5-1.1-2.5-2.5c0,1.4-1.1,2.5-2.5,2.5s-2.5-1.1-2.5-2.5
			c0,1.4-1.1,2.5-2.5,2.5c-1.4,0-2.5-1.1-2.5-2.5c0,1.4-1.1,2.5-2.5,2.5c-1.4,0-2.5-1.1-2.5-2.5c0,1.4-1.1,2.5-2.5,2.5
			c-1.4,0-2.5-1.1-2.5-2.5c0,1.4-1.1,2.5-2.5,2.5c-1.4,0-2.5-1.1-2.5-2.5c0,1.4-1.1,2.5-2.5,2.5c-1.4,0-2.5-1.1-2.5-2.5
			c0,1.4-1.1,2.5-2.5,2.5c-1.4,0-2.5-1.1-2.5-2.5c0,1.4-1.1,2.5-2.5,2.5c-1.4,0-2.5-1.1-2.5-2.5c0,1.4-1.1,2.5-2.5,2.5
			c-1.4,0-2.5-1.1-2.5-2.5v-8.9C342.3,620.2,343.4,619.1,344.8,619.1z"/>
		<path fill="#821800" d="M342.3,627.1c0,0,121.5,2,156.8-27.4c0,0-92.1,3.9-129.3-74.5h-27.4V627.1"/>
	</g>
	<g>
		<rect x="281.8" y="519.3" fill="#FF5F38" width="60.7" height="52.9"/>
		<path fill="#741F0A" d="M281.8,526.5c32.9,2.8,60.7,2.3,60.7,2.3v-9.6h-60.7V526.5z"/>
		<rect x="281.8" y="551.6" fill="#741F0A" width="42.6" height="3.4"/>
		<rect x="324.5" y="545.8" fill="#741F0A" width="4.7" height="26.5"/>
		<rect x="300.8" y="545.8" fill="#741F0A" width="4.7" height="26.5"/>
		<rect x="277.2" y="545.8" fill="#741F0A" width="4.7" height="26.5"/>
		<path fill="#741F0A" d="M342.6,535L342.6,535c-4.9,0-8.8,3.9-8.8,8.8v28.4h8.8V535z"/>
		<path fill="#741F0A" d="M340.1,517.1c-1.4,0-2.5,1.1-2.5,2.5c0-1.4-1.1-2.5-2.5-2.5c-1.4,0-2.5,1.1-2.5,2.5c0-1.4-1.1-2.5-2.5-2.5
			c-1.4,0-2.5,1.1-2.5,2.5c0-1.4-1.1-2.5-2.5-2.5c-1.4,0-2.5,1.1-2.5,2.5c0-1.4-1.1-2.5-2.5-2.5c-1.4,0-2.5,1.1-2.5,2.5
			c0-1.4-1.1-2.5-2.5-2.5c-1.4,0-2.5,1.1-2.5,2.5c0-1.4-1.1-2.5-2.5-2.5c-1.4,0-2.5,1.1-2.5,2.5c0-1.4-1.1-2.5-2.5-2.5
			c-1.4,0-2.5,1.1-2.5,2.5c0-1.4-1.1-2.5-2.5-2.5c-1.4,0-2.5,1.1-2.5,2.5c0-1.4-1.1-2.5-2.5-2.5c-1.4,0-2.5,1.1-2.5,2.5
			c0-1.4-1.1-2.5-2.5-2.5c-1.4,0-2.5,1.1-2.5,2.5c0-1.4-1.1-2.5-2.5-2.5s-2.5,1.1-2.5,2.5c0-1.4-1.1-2.5-2.5-2.5
			c-1.4,0-2.5,1.1-2.5,2.5c0-1.4-1.1-2.5-2.5-2.5c-1.4,0-2.5,1.1-2.5,2.5v8.9c0,1.4,1.1,2.5,2.5,2.5c1.4,0,2.5-1.1,2.5-2.5
			c0,1.4,1.1,2.5,2.5,2.5c1.4,0,2.5-1.1,2.5-2.5c0,1.4,1.1,2.5,2.5,2.5s2.5-1.1,2.5-2.5c0,1.4,1.1,2.5,2.5,2.5
			c1.4,0,2.5-1.1,2.5-2.5c0,1.4,1.1,2.5,2.5,2.5c1.4,0,2.5-1.1,2.5-2.5c0,1.4,1.1,2.5,2.5,2.5c1.4,0,2.5-1.1,2.5-2.5
			c0,1.4,1.1,2.5,2.5,2.5c1.4,0,2.5-1.1,2.5-2.5c0,1.4,1.1,2.5,2.5,2.5c1.4,0,2.5-1.1,2.5-2.5c0,1.4,1.1,2.5,2.5,2.5
			c1.4,0,2.5-1.1,2.5-2.5c0,1.4,1.1,2.5,2.5,2.5c1.4,0,2.5-1.1,2.5-2.5c0,1.4,1.1,2.5,2.5,2.5c1.4,0,2.5-1.1,2.5-2.5
			c0,1.4,1.1,2.5,2.5,2.5c1.4,0,2.5-1.1,2.5-2.5c0,1.4,1.1,2.5,2.5,2.5c1.4,0,2.5-1.1,2.5-2.5c0,1.4,1.1,2.5,2.5,2.5
			c1.4,0,2.5-1.1,2.5-2.5v-8.9C342.6,518.3,341.5,517.1,340.1,517.1z"/>
		<path fill="#CC2600" d="M342.6,525.2c0,0-121.5,2-156.8-27.4c0,0,92.1,3.9,129.3-74.5h27.4V525.2"/>
		
			<rect x="342.3" y="519.3" transform="matrix(-1 -1.224647e-16 1.224647e-16 -1 745.3789 1091.5184)" fill="#BA3E25" width="60.7" height="52.9"/>
		<path fill="#741F0A" d="M403.1,526.5c-32.9,2.8-60.7,2.3-60.7,2.3v-9.6h60.7V526.5z"/>
		
			<rect x="360.4" y="551.6" transform="matrix(-1 -1.224647e-16 1.224647e-16 -1 763.504 1106.7043)" fill="#4F1105" width="42.6" height="3.4"/>
		
			<rect x="355.8" y="545.8" transform="matrix(-1 -1.224647e-16 1.224647e-16 -1 716.2317 1117.9713)" fill="#4F1105" width="4.7" height="26.5"/>
		
			<rect x="379.4" y="545.8" transform="matrix(-1 -1.224647e-16 1.224647e-16 -1 763.504 1117.9713)" fill="#4F1105" width="4.7" height="26.5"/>
		
			<rect x="403.1" y="545.8" transform="matrix(-1 -1.224647e-16 1.224647e-16 -1 810.7764 1117.9713)" fill="#4F1105" width="4.7" height="26.5"/>
		<path fill="#4F1105" d="M342.3,535L342.3,535c4.9,0,8.8,3.9,8.8,8.8v28.4h-8.8V535z"/>
		<path fill="#4F1105" d="M344.8,517.1c1.4,0,2.5,1.1,2.5,2.5c0-1.4,1.1-2.5,2.5-2.5c1.4,0,2.5,1.1,2.5,2.5c0-1.4,1.1-2.5,2.5-2.5
			c1.4,0,2.5,1.1,2.5,2.5c0-1.4,1.1-2.5,2.5-2.5c1.4,0,2.5,1.1,2.5,2.5c0-1.4,1.1-2.5,2.5-2.5c1.4,0,2.5,1.1,2.5,2.5
			c0-1.4,1.1-2.5,2.5-2.5c1.4,0,2.5,1.1,2.5,2.5c0-1.4,1.1-2.5,2.5-2.5c1.4,0,2.5,1.1,2.5,2.5c0-1.4,1.1-2.5,2.5-2.5
			c1.4,0,2.5,1.1,2.5,2.5c0-1.4,1.1-2.5,2.5-2.5s2.5,1.1,2.5,2.5c0-1.4,1.1-2.5,2.5-2.5c1.4,0,2.5,1.1,2.5,2.5
			c0-1.4,1.1-2.5,2.5-2.5c1.4,0,2.5,1.1,2.5,2.5c0-1.4,1.1-2.5,2.5-2.5c1.4,0,2.5,1.1,2.5,2.5c0-1.4,1.1-2.5,2.5-2.5
			c1.4,0,2.5,1.1,2.5,2.5c0-1.4,1.1-2.5,2.5-2.5c1.4,0,2.5,1.1,2.5,2.5v8.9c0,1.4-1.1,2.5-2.5,2.5c-1.4,0-2.5-1.1-2.5-2.5
			c0,1.4-1.1,2.5-2.5,2.5c-1.4,0-2.5-1.1-2.5-2.5c0,1.4-1.1,2.5-2.5,2.5c-1.4,0-2.5-1.1-2.5-2.5c0,1.4-1.1,2.5-2.5,2.5
			c-1.4,0-2.5-1.1-2.5-2.5c0,1.4-1.1,2.5-2.5,2.5c-1.4,0-2.5-1.1-2.5-2.5c0,1.4-1.1,2.5-2.5,2.5s-2.5-1.1-2.5-2.5
			c0,1.4-1.1,2.5-2.5,2.5c-1.4,0-2.5-1.1-2.5-2.5c0,1.4-1.1,2.5-2.5,2.5c-1.4,0-2.5-1.1-2.5-2.5c0,1.4-1.1,2.5-2.5,2.5
			c-1.4,0-2.5-1.1-2.5-2.5c0,1.4-1.1,2.5-2.5,2.5c-1.4,0-2.5-1.1-2.5-2.5c0,1.4-1.1,2.5-2.5,2.5c-1.4,0-2.5-1.1-2.5-2.5
			c0,1.4-1.1,2.5-2.5,2.5c-1.4,0-2.5-1.1-2.5-2.5c0,1.4-1.1,2.5-2.5,2.5c-1.4,0-2.5-1.1-2.5-2.5c0,1.4-1.1,2.5-2.5,2.5
			c-1.4,0-2.5-1.1-2.5-2.5v-8.9C342.3,518.3,343.4,517.1,344.8,517.1z"/>
		<path fill="#821800" d="M342.3,525.2c0,0,121.5,2,156.8-27.4c0,0-92.1,3.9-129.3-74.5h-27.4V525.2"/>
	</g>
	<g>
		<rect x="281.8" y="417.4" fill="#FF5F38" width="60.7" height="52.9"/>
		<path fill="#741F0A" d="M281.8,424.6c32.9,2.8,60.7,2.3,60.7,2.3v-9.6h-60.7V424.6z"/>
		<rect x="281.8" y="449.7" fill="#741F0A" width="42.6" height="3.4"/>
		<rect x="324.5" y="443.8" fill="#741F0A" width="4.7" height="26.5"/>
		<rect x="300.8" y="443.8" fill="#741F0A" width="4.7" height="26.5"/>
		<rect x="277.2" y="443.8" fill="#741F0A" width="4.7" height="26.5"/>
		<path fill="#741F0A" d="M342.6,433.1L342.6,433.1c-4.9,0-8.8,3.9-8.8,8.8v28.4h8.8V433.1z"/>
		<path fill="#741F0A" d="M340.1,415.2c-1.4,0-2.5,1.1-2.5,2.5c0-1.4-1.1-2.5-2.5-2.5c-1.4,0-2.5,1.1-2.5,2.5c0-1.4-1.1-2.5-2.5-2.5
			c-1.4,0-2.5,1.1-2.5,2.5c0-1.4-1.1-2.5-2.5-2.5c-1.4,0-2.5,1.1-2.5,2.5c0-1.4-1.1-2.5-2.5-2.5c-1.4,0-2.5,1.1-2.5,2.5
			c0-1.4-1.1-2.5-2.5-2.5c-1.4,0-2.5,1.1-2.5,2.5c0-1.4-1.1-2.5-2.5-2.5c-1.4,0-2.5,1.1-2.5,2.5c0-1.4-1.1-2.5-2.5-2.5
			c-1.4,0-2.5,1.1-2.5,2.5c0-1.4-1.1-2.5-2.5-2.5c-1.4,0-2.5,1.1-2.5,2.5c0-1.4-1.1-2.5-2.5-2.5c-1.4,0-2.5,1.1-2.5,2.5
			c0-1.4-1.1-2.5-2.5-2.5c-1.4,0-2.5,1.1-2.5,2.5c0-1.4-1.1-2.5-2.5-2.5s-2.5,1.1-2.5,2.5c0-1.4-1.1-2.5-2.5-2.5
			c-1.4,0-2.5,1.1-2.5,2.5c0-1.4-1.1-2.5-2.5-2.5c-1.4,0-2.5,1.1-2.5,2.5v8.9c0,1.4,1.1,2.5,2.5,2.5c1.4,0,2.5-1.1,2.5-2.5
			c0,1.4,1.1,2.5,2.5,2.5c1.4,0,2.5-1.1,2.5-2.5c0,1.4,1.1,2.5,2.5,2.5s2.5-1.1,2.5-2.5c0,1.4,1.1,2.5,2.5,2.5
			c1.4,0,2.5-1.1,2.5-2.5c0,1.4,1.1,2.5,2.5,2.5c1.4,0,2.5-1.1,2.5-2.5c0,1.4,1.1,2.5,2.5,2.5c1.4,0,2.5-1.1,2.5-2.5
			c0,1.4,1.1,2.5,2.5,2.5c1.4,0,2.5-1.1,2.5-2.5c0,1.4,1.1,2.5,2.5,2.5c1.4,0,2.5-1.1,2.5-2.5c0,1.4,1.1,2.5,2.5,2.5
			c1.4,0,2.5-1.1,2.5-2.5c0,1.4,1.1,2.5,2.5,2.5c1.4,0,2.5-1.1,2.5-2.5c0,1.4,1.1,2.5,2.5,2.5c1.4,0,2.5-1.1,2.5-2.5
			c0,1.4,1.1,2.5,2.5,2.5c1.4,0,2.5-1.1,2.5-2.5c0,1.4,1.1,2.5,2.5,2.5c1.4,0,2.5-1.1,2.5-2.5c0,1.4,1.1,2.5,2.5,2.5
			c1.4,0,2.5-1.1,2.5-2.5v-8.9C342.6,416.3,341.5,415.2,340.1,415.2z"/>
		<path fill="#CC2600" d="M342.6,423.3c0,0-121.5,2-156.8-27.4c0,0,92.1,3.9,129.3-74.5h27.4V423.3"/>
		
			<rect x="342.3" y="417.4" transform="matrix(-1 -1.224647e-16 1.224647e-16 -1 745.3789 887.6787)" fill="#BA3E25" width="60.7" height="52.9"/>
		<path fill="#741F0A" d="M403.1,424.6c-32.9,2.8-60.7,2.3-60.7,2.3v-9.6h60.7V424.6z"/>
		
			<rect x="360.4" y="449.7" transform="matrix(-1 -1.224647e-16 1.224647e-16 -1 763.504 902.8646)" fill="#4F1105" width="42.6" height="3.4"/>
		
			<rect x="355.8" y="443.8" transform="matrix(-1 -1.224647e-16 1.224647e-16 -1 716.2317 914.1317)" fill="#4F1105" width="4.7" height="26.5"/>
		
			<rect x="379.4" y="443.8" transform="matrix(-1 -1.224647e-16 1.224647e-16 -1 763.504 914.1317)" fill="#4F1105" width="4.7" height="26.5"/>
		
			<rect x="403.1" y="443.8" transform="matrix(-1 -1.224647e-16 1.224647e-16 -1 810.7764 914.1317)" fill="#4F1105" width="4.7" height="26.5"/>
		<path fill="#4F1105" d="M342.3,433.1L342.3,433.1c4.9,0,8.8,3.9,8.8,8.8v28.4h-8.8V433.1z"/>
		<path fill="#4F1105" d="M344.8,415.2c1.4,0,2.5,1.1,2.5,2.5c0-1.4,1.1-2.5,2.5-2.5c1.4,0,2.5,1.1,2.5,2.5c0-1.4,1.1-2.5,2.5-2.5
			c1.4,0,2.5,1.1,2.5,2.5c0-1.4,1.1-2.5,2.5-2.5c1.4,0,2.5,1.1,2.5,2.5c0-1.4,1.1-2.5,2.5-2.5c1.4,0,2.5,1.1,2.5,2.5
			c0-1.4,1.1-2.5,2.5-2.5c1.4,0,2.5,1.1,2.5,2.5c0-1.4,1.1-2.5,2.5-2.5c1.4,0,2.5,1.1,2.5,2.5c0-1.4,1.1-2.5,2.5-2.5
			c1.4,0,2.5,1.1,2.5,2.5c0-1.4,1.1-2.5,2.5-2.5s2.5,1.1,2.5,2.5c0-1.4,1.1-2.5,2.5-2.5c1.4,0,2.5,1.1,2.5,2.5
			c0-1.4,1.1-2.5,2.5-2.5c1.4,0,2.5,1.1,2.5,2.5c0-1.4,1.1-2.5,2.5-2.5c1.4,0,2.5,1.1,2.5,2.5c0-1.4,1.1-2.5,2.5-2.5
			c1.4,0,2.5,1.1,2.5,2.5c0-1.4,1.1-2.5,2.5-2.5c1.4,0,2.5,1.1,2.5,2.5v8.9c0,1.4-1.1,2.5-2.5,2.5c-1.4,0-2.5-1.1-2.5-2.5
			c0,1.4-1.1,2.5-2.5,2.5c-1.4,0-2.5-1.1-2.5-2.5c0,1.4-1.1,2.5-2.5,2.5c-1.4,0-2.5-1.1-2.5-2.5c0,1.4-1.1,2.5-2.5,2.5
			c-1.4,0-2.5-1.1-2.5-2.5c0,1.4-1.1,2.5-2.5,2.5c-1.4,0-2.5-1.1-2.5-2.5c0,1.4-1.1,2.5-2.5,2.5s-2.5-1.1-2.5-2.5
			c0,1.4-1.1,2.5-2.5,2.5c-1.4,0-2.5-1.1-2.5-2.5c0,1.4-1.1,2.5-2.5,2.5c-1.4,0-2.5-1.1-2.5-2.5c0,1.4-1.1,2.5-2.5,2.5
			c-1.4,0-2.5-1.1-2.5-2.5c0,1.4-1.1,2.5-2.5,2.5c-1.4,0-2.5-1.1-2.5-2.5c0,1.4-1.1,2.5-2.5,2.5c-1.4,0-2.5-1.1-2.5-2.5
			c0,1.4-1.1,2.5-2.5,2.5c-1.4,0-2.5-1.1-2.5-2.5c0,1.4-1.1,2.5-2.5,2.5c-1.4,0-2.5-1.1-2.5-2.5c0,1.4-1.1,2.5-2.5,2.5
			c-1.4,0-2.5-1.1-2.5-2.5v-8.9C342.3,416.3,343.4,415.2,344.8,415.2z"/>
		<path fill="#821800" d="M342.3,423.3c0,0,121.5,2,156.8-27.4c0,0-92.1,3.9-129.3-74.5h-27.4V423.3"/>
	</g>
	<g>
		<rect x="281.8" y="315.5" fill="#FF5F38" width="60.7" height="52.9"/>
		<path fill="#741F0A" d="M281.8,322.7c32.9,2.8,60.7,2.3,60.7,2.3v-9.6h-60.7V322.7z"/>
		<rect x="281.8" y="347.8" fill="#741F0A" width="42.6" height="3.4"/>
		<rect x="324.5" y="341.9" fill="#741F0A" width="4.7" height="26.5"/>
		<rect x="300.8" y="341.9" fill="#741F0A" width="4.7" height="26.5"/>
		<rect x="277.2" y="341.9" fill="#741F0A" width="4.7" height="26.5"/>
		<path fill="#741F0A" d="M342.6,331.1L342.6,331.1c-4.9,0-8.8,3.9-8.8,8.8v28.4h8.8V331.1z"/>
		<path fill="#741F0A" d="M340.1,313.3c-1.4,0-2.5,1.1-2.5,2.5c0-1.4-1.1-2.5-2.5-2.5c-1.4,0-2.5,1.1-2.5,2.5c0-1.4-1.1-2.5-2.5-2.5
			c-1.4,0-2.5,1.1-2.5,2.5c0-1.4-1.1-2.5-2.5-2.5c-1.4,0-2.5,1.1-2.5,2.5c0-1.4-1.1-2.5-2.5-2.5c-1.4,0-2.5,1.1-2.5,2.5
			c0-1.4-1.1-2.5-2.5-2.5c-1.4,0-2.5,1.1-2.5,2.5c0-1.4-1.1-2.5-2.5-2.5c-1.4,0-2.5,1.1-2.5,2.5c0-1.4-1.1-2.5-2.5-2.5
			c-1.4,0-2.5,1.1-2.5,2.5c0-1.4-1.1-2.5-2.5-2.5c-1.4,0-2.5,1.1-2.5,2.5c0-1.4-1.1-2.5-2.5-2.5c-1.4,0-2.5,1.1-2.5,2.5
			c0-1.4-1.1-2.5-2.5-2.5c-1.4,0-2.5,1.1-2.5,2.5c0-1.4-1.1-2.5-2.5-2.5s-2.5,1.1-2.5,2.5c0-1.4-1.1-2.5-2.5-2.5
			c-1.4,0-2.5,1.1-2.5,2.5c0-1.4-1.1-2.5-2.5-2.5c-1.4,0-2.5,1.1-2.5,2.5v8.9c0,1.4,1.1,2.5,2.5,2.5c1.4,0,2.5-1.1,2.5-2.5
			c0,1.4,1.1,2.5,2.5,2.5c1.4,0,2.5-1.1,2.5-2.5c0,1.4,1.1,2.5,2.5,2.5s2.5-1.1,2.5-2.5c0,1.4,1.1,2.5,2.5,2.5
			c1.4,0,2.5-1.1,2.5-2.5c0,1.4,1.1,2.5,2.5,2.5c1.4,0,2.5-1.1,2.5-2.5c0,1.4,1.1,2.5,2.5,2.5c1.4,0,2.5-1.1,2.5-2.5
			c0,1.4,1.1,2.5,2.5,2.5c1.4,0,2.5-1.1,2.5-2.5c0,1.4,1.1,2.5,2.5,2.5c1.4,0,2.5-1.1,2.5-2.5c0,1.4,1.1,2.5,2.5,2.5
			c1.4,0,2.5-1.1,2.5-2.5c0,1.4,1.1,2.5,2.5,2.5c1.4,0,2.5-1.1,2.5-2.5c0,1.4,1.1,2.5,2.5,2.5c1.4,0,2.5-1.1,2.5-2.5
			c0,1.4,1.1,2.5,2.5,2.5c1.4,0,2.5-1.1,2.5-2.5c0,1.4,1.1,2.5,2.5,2.5c1.4,0,2.5-1.1,2.5-2.5c0,1.4,1.1,2.5,2.5,2.5
			c1.4,0,2.5-1.1,2.5-2.5v-8.9C342.6,314.4,341.5,313.3,340.1,313.3z"/>
		<path fill="#CC2600" d="M342.6,321.3c0,0-121.5,2-156.8-27.4c0,0,92.1,3.9,129.3-74.5h27.4V321.3"/>
		
			<rect x="342.3" y="315.5" transform="matrix(-1 -1.224647e-16 1.224647e-16 -1 745.3789 683.839)" fill="#BA3E25" width="60.7" height="52.9"/>
		<path fill="#741F0A" d="M403.1,322.7c-32.9,2.8-60.7,2.3-60.7,2.3v-9.6h60.7V322.7z"/>
		
			<rect x="360.4" y="347.8" transform="matrix(-1 -1.224647e-16 1.224647e-16 -1 763.504 699.0249)" fill="#4F1105" width="42.6" height="3.4"/>
		
			<rect x="355.8" y="341.9" transform="matrix(-1 -1.224647e-16 1.224647e-16 -1 716.2317 710.2919)" fill="#4F1105" width="4.7" height="26.5"/>
		
			<rect x="379.4" y="341.9" transform="matrix(-1 -1.224647e-16 1.224647e-16 -1 763.504 710.2919)" fill="#4F1105" width="4.7" height="26.5"/>
		
			<rect x="403.1" y="341.9" transform="matrix(-1 -1.224647e-16 1.224647e-16 -1 810.7764 710.2919)" fill="#4F1105" width="4.7" height="26.5"/>
		<path fill="#4F1105" d="M342.3,331.1L342.3,331.1c4.9,0,8.8,3.9,8.8,8.8v28.4h-8.8V331.1z"/>
		<path fill="#4F1105" d="M344.8,313.3c1.4,0,2.5,1.1,2.5,2.5c0-1.4,1.1-2.5,2.5-2.5c1.4,0,2.5,1.1,2.5,2.5c0-1.4,1.1-2.5,2.5-2.5
			c1.4,0,2.5,1.1,2.5,2.5c0-1.4,1.1-2.5,2.5-2.5c1.4,0,2.5,1.1,2.5,2.5c0-1.4,1.1-2.5,2.5-2.5c1.4,0,2.5,1.1,2.5,2.5
			c0-1.4,1.1-2.5,2.5-2.5c1.4,0,2.5,1.1,2.5,2.5c0-1.4,1.1-2.5,2.5-2.5c1.4,0,2.5,1.1,2.5,2.5c0-1.4,1.1-2.5,2.5-2.5
			c1.4,0,2.5,1.1,2.5,2.5c0-1.4,1.1-2.5,2.5-2.5s2.5,1.1,2.5,2.5c0-1.4,1.1-2.5,2.5-2.5c1.4,0,2.5,1.1,2.5,2.5
			c0-1.4,1.1-2.5,2.5-2.5c1.4,0,2.5,1.1,2.5,2.5c0-1.4,1.1-2.5,2.5-2.5c1.4,0,2.5,1.1,2.5,2.5c0-1.4,1.1-2.5,2.5-2.5
			c1.4,0,2.5,1.1,2.5,2.5c0-1.4,1.1-2.5,2.5-2.5c1.4,0,2.5,1.1,2.5,2.5v8.9c0,1.4-1.1,2.5-2.5,2.5c-1.4,0-2.5-1.1-2.5-2.5
			c0,1.4-1.1,2.5-2.5,2.5c-1.4,0-2.5-1.1-2.5-2.5c0,1.4-1.1,2.5-2.5,2.5c-1.4,0-2.5-1.1-2.5-2.5c0,1.4-1.1,2.5-2.5,2.5
			c-1.4,0-2.5-1.1-2.5-2.5c0,1.4-1.1,2.5-2.5,2.5c-1.4,0-2.5-1.1-2.5-2.5c0,1.4-1.1,2.5-2.5,2.5s-2.5-1.1-2.5-2.5
			c0,1.4-1.1,2.5-2.5,2.5c-1.4,0-2.5-1.1-2.5-2.5c0,1.4-1.1,2.5-2.5,2.5c-1.4,0-2.5-1.1-2.5-2.5c0,1.4-1.1,2.5-2.5,2.5
			c-1.4,0-2.5-1.1-2.5-2.5c0,1.4-1.1,2.5-2.5,2.5c-1.4,0-2.5-1.1-2.5-2.5c0,1.4-1.1,2.5-2.5,2.5c-1.4,0-2.5-1.1-2.5-2.5
			c0,1.4-1.1,2.5-2.5,2.5c-1.4,0-2.5-1.1-2.5-2.5c0,1.4-1.1,2.5-2.5,2.5c-1.4,0-2.5-1.1-2.5-2.5c0,1.4-1.1,2.5-2.5,2.5
			c-1.4,0-2.5-1.1-2.5-2.5v-8.9C342.3,314.4,343.4,313.3,344.8,313.3z"/>
		<path fill="#821800" d="M342.3,321.3c0,0,121.5,2,156.8-27.4c0,0-92.1,3.9-129.3-74.5h-27.4V321.3"/>
	</g>
	<rect id="XMLID_1_" x="342.3" y="740.7" fill="#821800" width="69.6" height="8.8"/>
	<path fill="#CC2600" d="M281.8,828.8L281.8,828.8c-3.8,0-6.9-3.1-6.9-6.9v-72.3c0-3.8,3.1-6.9,6.9-6.9l0,0c3.8,0,6.9,3.1,6.9,6.9
		V822C288.7,825.8,285.6,828.8,281.8,828.8z"/>
	<path fill="#CC2600" d="M315.5,828.8L315.5,828.8c-3.8,0-6.9-3.1-6.9-6.9v-72.3c0-3.8,3.1-6.9,6.9-6.9l0,0c3.8,0,6.9,3.1,6.9,6.9
		V822C322.4,825.8,319.3,828.8,315.5,828.8z"/>
	<path fill="#821800" d="M403.1,828.8L403.1,828.8c-3.8,0-6.9-3.1-6.9-6.9v-72.3c0-3.8,3.1-6.9,6.9-6.9l0,0c3.8,0,6.9,3.1,6.9,6.9
		V822C409.9,825.8,406.8,828.8,403.1,828.8z"/>
	<path fill="#821800" d="M369.4,828.8L369.4,828.8c-3.8,0-6.9-3.1-6.9-6.9v-72.3c0-3.8,3.1-6.9,6.9-6.9l0,0c3.8,0,6.9,3.1,6.9,6.9
		V822C376.3,825.8,373.2,828.8,369.4,828.8z"/>
	<rect id="XMLID_2_" x="273.1" y="740.7" fill="#CC2600" width="69.6" height="8.8"/>
	<rect x="324.2" y="757.8" fill="#CC2600" width="18.1" height="67.2"/>
	<rect x="342.3" y="757.8" fill="#821800" width="18.1" height="67.2"/>
	<rect x="371.5" y="778.5" fill="#821800" width="30.1" height="7.3"/>
	<rect x="282.1" y="778.5" fill="#CC2600" width="30.1" height="7.3"/>
	<path fill="#821800" d="M450.8,807.3h-217c-1.3,0-2.4-1.1-2.4-2.4l0,0c0-1.3,1.1-2.4,2.4-2.4h217c1.3,0,2.4,1.1,2.4,2.4l0,0
		C453.3,806.2,452.2,807.3,450.8,807.3z"/>
	<path fill="#821800" d="M450.8,828.7h-217c-1.3,0-2.4-1.1-2.4-2.4l0,0c0-1.3,1.1-2.4,2.4-2.4h217c1.3,0,2.4,1.1,2.4,2.4l0,0
		C453.3,827.6,452.2,828.7,450.8,828.7z"/>
	<path fill="#821800" d="M234,796.2L234,796.2c-1.5,0-2.6,1.2-2.6,2.6v27.4c0,1.5,1.2,2.6,2.6,2.6l0,0c1.5,0,2.6-1.2,2.6-2.6v-27.4
		C236.6,797.3,235.5,796.2,234,796.2z"/>
	<path fill="#821800" d="M265,796.2L265,796.2c-1.5,0-2.6,1.2-2.6,2.6v27.4c0,1.5,1.2,2.6,2.6,2.6l0,0c1.5,0,2.6-1.2,2.6-2.6v-27.4
		C267.6,797.3,266.4,796.2,265,796.2z"/>
	<path fill="#821800" d="M295.9,796.2L295.9,796.2c-1.5,0-2.6,1.2-2.6,2.6v27.4c0,1.5,1.2,2.6,2.6,2.6l0,0c1.5,0,2.6-1.2,2.6-2.6
		v-27.4C298.5,797.3,297.3,796.2,295.9,796.2z"/>
	<path fill="#821800" d="M326.8,796.2L326.8,796.2c-1.5,0-2.6,1.2-2.6,2.6v27.4c0,1.5,1.2,2.6,2.6,2.6l0,0c1.5,0,2.6-1.2,2.6-2.6
		v-27.4C329.5,797.3,328.3,796.2,326.8,796.2z"/>
	<path fill="#821800" d="M357.8,796.2L357.8,796.2c-1.5,0-2.6,1.2-2.6,2.6v27.4c0,1.5,1.2,2.6,2.6,2.6l0,0c1.5,0,2.6-1.2,2.6-2.6
		v-27.4C360.4,797.3,359.2,796.2,357.8,796.2z"/>
	<path fill="#821800" d="M388.7,796.2L388.7,796.2c-1.5,0-2.6,1.2-2.6,2.6v27.4c0,1.5,1.2,2.6,2.6,2.6l0,0c1.5,0,2.6-1.2,2.6-2.6
		v-27.4C391.4,797.3,390.2,796.2,388.7,796.2z"/>
	<path fill="#821800" d="M419.7,796.2L419.7,796.2c-1.5,0-2.6,1.2-2.6,2.6v27.4c0,1.5,1.2,2.6,2.6,2.6l0,0c1.5,0,2.6-1.2,2.6-2.6
		v-27.4C422.3,797.3,421.1,796.2,419.7,796.2z"/>
	<path fill="#821800" d="M450.6,796.2L450.6,796.2c-1.5,0-2.6,1.2-2.6,2.6v27.4c0,1.5,1.2,2.6,2.6,2.6l0,0c1.5,0,2.6-1.2,2.6-2.6
		v-27.4C453.3,797.3,452.1,796.2,450.6,796.2z"/>
	<rect x="312.2" y="213.1" fill="#3F3F3F" width="30.4" height="6.4"/>
	<rect x="342.6" y="213.1" fill="#262626" width="30.4" height="6.4"/>
	<rect x="327.4" y="206.7" fill="#3F3F3F" width="15.2" height="6.4"/>
	<rect x="342.6" y="206.7" fill="#262626" width="15.2" height="6.4"/>
	<rect x="298.5" y="844.6" fill="#003337" width="30.9" height="11.8"/>
	<rect x="255.2" y="866.7" fill="#003337" width="30.9" height="11.8"/>
	<rect x="357.2" y="862.8" fill="#004F5D" width="30.9" height="11.8"/>
	<rect x="405.2" y="874.8" fill="#004F5D" width="30.9" height="11.8"/>
	<rect x="460.6" y="895.3" fill="#004F5D" width="30.9" height="11.8"/>
	<rect x="396.4" y="836.8" fill="#004F5D" width="30.9" height="11.8"/>
	<rect x="427.4" y="853.5" fill="#004F5D" width="30.9" height="11.8"/>
	<rect x="226.9" y="847.6" fill="#003337" width="30.9" height="11.8"/>
	<rect x="193.1" y="886.5" fill="#003337" width="30.9" height="11.8"/>
	<rect x="288.7" y="880.7" fill="#003337" width="30.9" height="11.8"/>
</g>
</svg>
